<?xml version="1.0" encoding="utf-8"?>
<!-- Generator: Adobe Illustrator 28.0.0, SVG Export Plug-In . SVG Version: 6.00 Build 0)  -->
<svg version="1.1" id="Слой_1" xmlns="http://www.w3.org/2000/svg" xmlns:xlink="http://www.w3.org/1999/xlink" x="0px" y="0px"
	 viewBox="0 0 1000 415.0124512" style="enable-background:new 0 0 1000 415.0124512;" xml:space="preserve">
<style type="text/css">
	.st0{fill:#FAFAFA;}
	.st1{fill:#96EA28;}
</style>
<path class="st0" d="M46.4470901,209.024765c0,25.3612671,20.3869095,45.7093811,45.7971725,45.7093811
	c25.4097672,0,46.1218872-20.348114,46.1218872-45.7093811s-20.7121201-46.0343781-46.1218872-46.0343781
	C66.8339996,162.990387,46.4470901,183.6635132,46.4470901,209.024765z M82.8779831,121.2921371
	c24.4052277,0,46.8014145,11.6778488,54.1586227,28.0153427V62.901886H183.48349v229.5203857h-46.4468842v-22.028656
	c-8.6867523,15.3344727-31.4079437,26.3342896-54.1586227,26.3342896C36.0762825,296.7279053,0,258.6857605,0,208.9952545
	s36.105835-87.7326126,82.8779831-87.7326126"/>
<path class="st0" d="M320.1950989,125.2737579v43.0252838c-5.6726685-0.6490173-11.3753357-1.0020294-17.3730164-1.0020294
	c-24.4057312,0-41.4537659,19.3445892-41.4537659,46.7114105v78.3848267h-46.4473724V125.5977631h46.4473724v25.3612671h0.3250427
	c5.3476562-17.3400269,21.0666199-28.3398514,41.0992126-28.3398514c7.0317383,0,13.3549194,1.0030289,17.3730164,2.6545792"/>
<path class="st0" d="M386.7045898,292.42276h-46.4473877V125.6272659h46.4473877V292.42276z M340.2277222,58.8917656h46.4473877
	v45.7093697h-46.4473877V58.8917656z"/>
<path class="st0" d="M403.3981018,125.6267624h47.1269226l31.437439,113.7434158h0.6499939l31.4379578-113.7434158h47.1264038
	l-51.8265686,166.7955017h-54.127594L403.3981018,125.6267624z"/>
<path class="st1" d="M709.4712524,0h165.249939C943.8632812,0,1000,56.0306816,1000,125.0372543v164.937439
	c0,69.0065613-56.1367188,125.0377502-125.2788086,125.0377502h-165.249939
	c-69.1420898,0-125.2787476-56.031189-125.2787476-125.0377502v-164.937439C584.1925049,56.0306816,640.3291626,0,709.4712524,0z"/>
<path class="st0" d="M818.8245239,110.9113312c36.1061401-35.0325546,92.567749-38.6881714,122.9986572-9.345787
	l1.5100708,1.5330505c31.7860107,31.9154587,28.6308594,85.873085-8.21521,126.6007919
	c-19.3855591,21.6746521-47.1264038,41.0217438-78.5323486,56.0316925
	c15.3604736,8.3452454,35.7510986,11.6738281,62.1618652,7.3392029
	c28.3708496-4.709137,57.4917603-20.6451111,81.2524414-42.6772766v39.5811768
	c0,6.7052002-0.5350952,13.2874146-1.5550537,19.7080994c-20.3505859,12.6118774-42.4512939,21.4741516-64.9819946,25.7672729
	c-58.1467285,10.9993286-99.2779541-4.0116272-125.008667-31.348938
	c-74.1922607,21.6751404-143.7143555,10.3518066-177.4903564-28.691864
	c-15.0254517,4.6856384-30.7359619,8.3362427-46.7714233,11.3428345v-45.3188477
	c9.0053101-1.7325592,17.9705811-3.7906189,26.7407837-6.044693c-9.6902466-39.6926727,1.6550903-82.0669556,22.3956909-107.7527161
	c29.4009399-36.3610992,81.9025269-44.7078476,111.3033447-17.0170212
	c25.4107666,24.0052261,22.7207031,71.0411301-1.0050659,99.7345047
	c-15.3954468,18.6965485-39.446167,35.0365448-68.8470459,48.3659363
	c23.725769,15.6884766,66.5120239,17.0155029,109.6182861,6.6651917
	C765.3428955,214.3364258,778.0482788,148.953476,818.8245239,110.9113312z M909.3822632,134.2665253
	c-13.385376-12.6803818-41.1011963-9.6712875-62.5218506,12.6808777
	c-24.0507202,24.6832428-33.4160156,70.0686035-19.7056274,104.1001282
	c27.4158325-11.3533478,52.1465454-26.6863098,71.5271606-47.7114258
	C921.732666,177.974823,925.4277344,149.2769775,909.3822632,134.2665253z M713.5164185,142.9677887
	c-11.0203857-10.0258026-31.7609863-5.6631775-44.4364014,9.9958038
	c-15.0404053,18.0180359-20.0605469,45.0323486-16.0404053,68.7130585
	c23.3956909-9.6727905,42.1012573-21.3521423,53.4765625-35.0355682l1.25-1.5675354
	C720.6516724,168.5575409,722.5616455,151.6815491,713.5164185,142.9677887z"/>
</svg>
